<?xml version="1.0" encoding="UTF-8" standalone="no"?>
<svg xmlns="http://www.w3.org/2000/svg" xmlns:xlink="http://www.w3.org/1999/xlink" width="297.000mm" height="210.000mm" viewBox="0.000000 0.000000 297.000000 210.000000" stroke-linejoin="round" stroke-linecap="round" fill="none" fill-rule="evenodd"><desc>Composer Export</desc><script type="text/ecmascript"><![CDATA[
if(typeof(top) != "undefined")
{
	top.ShowPaper = ShowPaper;
}
function ShowHotSpot(evt,hotspotid)
{
	var svgDocument = evt.target.ownerDocument;
	var strId = "hotspot."+hotspotid;
	var hotspot = svgDocument.getElementById(strId);
	if(hotspot)
		hotspot.setAttribute("opacity",".5");
}
function HideHotSpot(evt,hotspotid)
{
	var svgDocument = evt.target.ownerDocument;
	var strId = "hotspot."+hotspotid;
	var hotspot = svgDocument.getElementById(strId);
	if(hotspot)
		hotspot.setAttribute("opacity","0");

	var toolTip = svgDocument.getElementById('ToolTip');
	if(toolTip)
		toolTip.setAttribute("visibility","hidden");
}
function ShowToolTip(evt,hotspotid,strTooltip)
{
	if(strTooltip=="")
	return;

	// change text
	var svgDocument = evt.target.ownerDocument;
	var tiptext = svgDocument.getElementById('ToolTipText');
	if( !tiptext )
	return;
	tiptext.firstChild.nodeValue = " " + strTooltip + "  " ;

	// show tooltip before, else some refresh issue

	var toolTip = svgDocument.getElementById('ToolTip');
	if(!toolTip)
	return;

	toolTip.setAttribute("visibility","visible");
	toolTip.setAttribute("opacity",".95");

	// move tooltip
	// get viewbox

	var root = svgDocument.documentElement;
	var vbox = (root.getAttribute("viewBox")).split(' ');
	var x0 = parseFloat(vbox[0]);
	var y0 = parseFloat(vbox[1]);
	var vboxW = parseFloat(vbox[2]);
	var vboxH = parseFloat(vbox[3]);

	// get default width of svg

	var strW = root.getAttribute("width");
	var svgW = parseFloat(strW);
	if(strW.indexOf('mm') != -1)
	svgW *= 3.779;

	var strH = root.getAttribute("height");
	var svgH = parseFloat(strH);
	if(strH.indexOf('mm') != -1)
	svgH *= 3.779;  	// 96 dpi  -> 96/25.4 = 3.779

	// update the viewbox / width / height if svg is embedded in html with zoom fit all
	var realx0 = x0;
	var realy0 = y0;
	var realvboxW = vboxW;
	var realvboxH = vboxH;
	var realsvgW = svgW;
	var realsvgH = svgH;

	if ((typeof(top) == "undefined") || (typeof(top.svgctl1) != "undefined")) // embedded in html
	{
		// get window size in pxl

		svgW = window.innerWidth;
		svgH = window.innerHeight;

		// calculate real viewbox

		realsvgW = svgW;
		realsvgH = svgH;
		if((svgW / svgH) > (vboxW / vboxH))
		{
			realvboxW = (vboxH * svgW) / svgH;
			realvboxH = vboxH;
			realx0 = x0 - (realvboxW - vboxW)/2 ;
		}
		else
		{
			realvboxH = (vboxW * svgH) / svgW;
			realvboxW = vboxW;
			realy0 = y0 - (realvboxH - vboxH)/2 ;
		}
	}

	// get user zoom/pan

	var newScale = root.currentScale;
	var translation = root.currentTranslate;

	// transform pxl to user unit

	var xPos = (((evt.clientX+10- translation.x)/newScale) * realvboxW)/realsvgW  + realx0 ;
	var yPos = (((evt.clientY+5- translation.y)/newScale) * realvboxH)/ realsvgH  + realy0 ;
	var scaleForWidth = ( (1 / newScale) * realvboxH) / realsvgH;

	// move tooltip

	toolTip.setAttribute("transform", "translate(" + xPos + "," + yPos + ")" );

	// resize tooltip

	var fontsize = 12;
	tiptext.setAttribute("font-size",fontsize*scaleForWidth);
	tiptext.setAttribute("y", fontsize*scaleForWidth);
	var tipBG = svgDocument.getElementById('ToolTipBG');
	var outline = tiptext.getBBox();
	if(tipBG)
	{
		tipBG.setAttribute("stroke-width", 1*scaleForWidth);
		tipBG.setAttribute("width", Number(outline.width) );
		tipBG.setAttribute("height", Number(outline.height) + fontsize*.5*scaleForWidth );
	}
	var ToolTipShadow = svgDocument.getElementById('ToolTipShadow');
	if(ToolTipShadow)
	{
		ToolTipShadow.setAttribute("width", Number(outline.width) );
		ToolTipShadow.setAttribute("height", Number(outline.height) + fontsize*.5*scaleForWidth );
		ToolTipShadow.setAttribute("x", 3*scaleForWidth);
		ToolTipShadow.setAttribute("y", 3*scaleForWidth);
	}
}
function ShowPaper()
{
  var svgDocument = getDocument();
  var paper = svgDocument.getElementById("paperID");
  if(paper)
  {
    paper.setAttribute("transform","scale(1)");
    paper.setAttribute("opacity","1");
    paper.setAttribute("visibility","visible");
  }
  var svg = svgDocument.getRootElement();
  if(svg)
  {
    svg.setAttribute("width","307.000mm");
    svg.setAttribute("height","220.000mm");
    svg.setAttribute("viewBox","-5.000000 -5.000000 307.000000 220.000000");
  }
}
]]></script><defs/><g><g id="Actor_.0"><g style="stroke:#000000;stroke-width:0.353"><path d="M38.55,139.28L41.34,138.58"/><path d="M38.51,139.30L38.60,139.25L38.67,139.17L38.72,139.08L38.74,138.97L38.74,137.57"/><path d="M38.74,138.97L41.33,138.33"/><path d="M38.14,113.67L39.01,113.68L39.83,113.99L40.50,114.55L40.94,115.31L41.11,116.18L41.32,128.96L43.42,128.45"/><path d="M43.61,128.82L41.66,129.30L41.56,129.28L41.46,129.24L41.39,129.16L41.34,129.07L41.32,128.96"/><path d="M41.66,129.30L63.87,129.47L64.01,129.44"/><path d="M43.80,129.23L43.88,129.28"/><path d="M43.71,129.22L43.67,129.21L43.83,129.17"/><path d="M43.68,129.20L43.79,129.23"/><path d="M45.46,129.02L45.48,129.07L45.50,129.17L45.18,129.25"/><path d="M45.90,129.25L45.89,129.16L47.23,129.17"/><path d="M46.26,129.31L46.22,129.25"/><path d="M45.54,129.25L45.54,129.16L45.89,129.16L45.91,128.91"/><path d="M45.50,129.25L45.50,129.17L45.54,129.16"/><path d="M46.24,128.81L48.16,128.83L48.46,128.85L48.49,128.86L47.01,129.23"/><path d="M46.91,129.24L46.82,129.29"/><path d="M48.39,128.88L48.42,128.88"/><path d="M47.94,128.83L47.91,128.90L47.89,129.00"/><path d="M47.86,128.54L47.82,128.44"/><path d="M48.28,128.33L48.26,128.55"/><path d="M49.09,128.61L49.08,128.56L49.06,128.55"/><path d="M49.84,128.53L50.87,128.27L50.53,128.25L48.60,128.23"/><path d="M50.31,128.24L50.27,128.31L50.26,128.42"/><path d="M49.74,128.54L49.65,128.59"/><path d="M50.86,128.28L50.76,128.29"/><path d="M63.97,129.46L63.87,129.47"/><path d="M65.14,121.62L64.69,121.71"/><path d="M64.79,121.70L66.43,121.76L66.51,121.77L66.59,121.81L66.65,121.86L67.62,122.85L68.32,122.68"/><path d="M66.43,121.76L66.73,121.68"/><path d="M66.65,121.86L67.29,121.70"/><path d="M67.72,129.16L67.74,129.27L67.79,129.37L67.86,129.44L67.95,129.49L68.06,129.50L69.95,129.04L69.84,129.02L69.75,128.97L69.68,128.89L69.63,128.80L69.61,128.69L67.72,129.16L67.72,123.09L67.71,123.00L67.68,122.92L67.62,122.85"/><path d="M68.32,122.85L67.71,123.00"/><path d="M67.72,123.09L68.32,122.94"/><path d="M68.06,129.50L70.17,129.52L70.28,129.50"/><path d="M69.61,128.45L69.61,128.69L70.51,128.48"/><path d="M69.95,129.04L70.51,128.90"/><path d="M70.17,129.52L70.31,129.48"/><path d="M80.32,122.18L80.12,122.23L72.60,121.97L72.90,121.89"/><path d="M72.60,121.97L72.51,121.98"/><path d="M80.12,122.23L105.13,124.75L105.22,124.77L105.30,124.81L105.36,124.87L109.28,129.68"/><path d="M102.31,141.33L102.31,140.13"/><path d="M105.36,124.87L106.02,124.71"/><path d="M105.13,124.75L105.50,124.66"/><path d="M109.86,126.84L109.90,126.86L109.99,126.94L109.90,126.89L109.76,126.77L109.51,126.51L108.19,124.92"/><path d="M108.37,124.94L109.44,126.26L109.44,126.42"/><path d="M108.52,124.96L109.52,126.20L109.66,126.10L109.76,126.05L108.91,124.99"/><path d="M109.23,126.18L109.20,126.21"/><path d="M109.73,126.06L108.86,124.99"/><path d="M109.52,126.20L109.44,126.26L109.54,126.54"/><path d="M109.99,126.94L110.28,126.86L110.19,126.79L110.08,126.75L109.97,126.74"/><path d="M110.28,126.86L110.28,126.81L110.22,126.68L110.05,126.43L109.76,126.05"/><path d="M113.64,126.03L112.33,126.35L112.26,126.30L112.12,126.18L111.88,125.93L111.29,125.23"/><path d="M111.59,125.59L111.57,125.62"/><path d="M112.35,126.35L112.27,126.27L112.23,126.26"/><path d="M112.16,126.23L112.18,126.24"/><path d="M114.14,125.67L114.23,125.67L121.28,126.38L121.37,126.40L121.44,126.44L121.51,126.50L122.28,126.31"/><path d="M114.23,125.67L114.66,125.56"/><path d="M118.45,141.45L118.45,140.25"/><path d="M121.28,126.38L121.76,126.26"/><path d="M121.51,126.50L125.42,131.31L125.42,140.31"/><path d="M124.32,126.51L125.33,127.75L125.31,127.78L124.28,126.51"/><path d="M124.47,126.53L125.53,127.83L125.53,127.96"/><path d="M125.42,131.31L127.66,130.75"/><path d="M124.96,126.57L125.81,127.63L125.85,127.62L126.14,128.00L126.30,128.25L126.37,128.38L126.38,128.43L126.10,128.50L126.05,128.49L125.86,128.33L125.62,128.08L125.33,127.74L125.33,127.75"/><path d="M125.85,127.62L125.01,126.58"/><path d="M125.62,128.08L125.53,127.83L125.75,127.67L124.88,126.57"/><path d="M125.81,127.63L125.75,127.67"/><path d="M126.37,128.43L126.28,128.36L126.17,128.32L126.06,128.31"/><path d="M126.10,128.50L126.01,128.43L125.97,128.41"/></g><g style="stroke:#000000;stroke-width:0.705"><path d="M41.34,138.59L38.51,139.30L38.40,139.31L37.63,139.30L37.52,139.29L37.43,139.23L37.35,139.15L35.75,136.66L35.71,136.57L35.69,136.47L36.04,116.14L36.21,115.28L36.65,114.52L37.32,113.97L38.14,113.67L38.83,113.50"/><path d="M38.74,137.57L41.31,137.59L41.41,140.53L41.43,140.63L41.48,140.72L41.55,140.80L41.64,140.84L41.74,140.86L102.31,141.33L107.00,140.16"/><path d="M43.81,129.23L43.71,129.22L43.91,129.23"/><path d="M43.87,129.28L43.77,129.23L43.79,129.23"/><path d="M48.30,128.92L48.39,128.88L46.91,129.24L47.01,129.23L46.34,129.25L44.52,129.24"/><path d="M49.76,128.54L49.74,128.54L49.84,128.53L49.17,128.55L47.36,128.54"/><path d="M50.66,128.34L50.76,128.29L49.77,128.54"/><path d="M65.11,121.61L64.69,121.71L64.60,121.76L64.52,121.83L64.47,121.92L64.45,122.03L64.21,129.15L64.19,129.25L64.14,129.34L64.07,129.41L63.97,129.46"/><path d="M70.28,129.50L70.37,129.46L70.44,129.38L70.49,129.29L70.51,129.18L70.51,124.06L70.52,123.97L70.55,123.89L70.61,123.82L72.35,122.07L72.42,122.01L72.51,121.98L72.85,121.89"/><path d="M102.31,140.13L109.28,140.18L111.80,141.40L118.45,141.45L119.41,141.21"/><path d="M108.20,124.92L109.23,126.18L109.50,126.49L109.72,126.72L109.82,126.81L109.87,126.78L109.97,126.74L109.79,126.79"/><path d="M109.28,129.68L113.98,125.74L114.06,125.70L114.14,125.67L114.61,125.56"/><path d="M109.82,126.81L109.89,126.86"/><path d="M109.85,126.84L109.79,126.82"/><path d="M111.29,125.23L111.86,125.91L112.15,126.20L113.97,125.75"/><path d="M112.16,126.23L112.21,126.26"/><path d="M112.15,126.20L112.25,126.27"/><path d="M125.42,140.31L118.45,140.25"/><path d="M125.99,128.42L125.83,128.29L125.61,128.06L124.32,126.51"/><path d="M125.90,128.39L125.95,128.40"/><path d="M125.90,128.36L126.06,128.31L125.95,128.35L125.92,128.37"/></g></g><g id="Actor_.1"><g style="stroke:#000000;stroke-width:0.353"><path d="M76.68,106.22L76.29,106.29L75.38,106.35L74.05,106.40L72.44,106.43L71.58,106.43L70.73,106.43L69.10,106.40L67.73,106.36L66.77,106.30L66.32,106.23"/><path d="M75.69,105.41L75.60,105.47L75.06,105.53L74.85,105.54L74.14,105.57L72.93,105.60L71.57,105.61L70.20,105.60L68.97,105.58L68.01,105.53L67.43,105.48L67.30,105.45L67.29,105.42"/><path d="M75.27,105.27L75.19,105.32L74.71,105.37L73.88,105.41L72.79,105.44L71.56,105.45L70.32,105.44L69.22,105.42L68.87,105.40L68.35,105.38L67.83,105.33L67.72,105.30L67.71,105.28L68.00,105.22"/></g><g style="stroke:#000000;stroke-width:0.705"><path d="M67.30,105.45L66.32,106.23L66.28,106.28L66.25,106.35L66.24,106.42L66.26,106.49L66.30,106.55L66.36,106.59L66.43,106.61L66.87,106.68L67.81,106.74L69.15,106.79L69.95,106.80L70.74,106.81L72.42,106.81L74.00,106.78L74.44,106.77L75.30,106.74L76.19,106.68L76.58,106.60L76.65,106.58L76.70,106.54L76.75,106.48L76.76,106.41L76.76,106.34L76.73,106.27L76.68,106.22L75.69,105.41L75.49,105.31L74.95,105.22L74.24,105.17L73.25,105.14L72.10,105.12L70.81,105.12L69.63,105.14L68.87,105.17L68.66,105.18L68.00,105.22L67.79,105.26L67.49,105.31L67.29,105.42L66.52,106.07"/></g></g><g id="Actor_.2"><g style="stroke:#000000;stroke-width:0.353"><path d="M38.23,140.66L38.32,140.62L38.40,140.54L38.44,140.45L38.47,139.94L38.46,139.83L38.41,139.73L38.34,139.66L38.24,139.61L37.37,139.57L37.26,139.55L37.17,139.49L37.09,139.41L35.59,136.96L35.54,136.77L35.78,136.71"/><path d="M35.59,136.96L35.89,136.88"/><path d="M35.54,136.77L35.89,116.14L36.05,115.27L36.48,114.49L37.13,113.90L37.94,113.56"/><path d="M35.89,116.14L36.05,116.10"/><path d="M37.09,139.41L37.56,139.29"/><path d="M37.37,139.57L38.42,139.31"/><path d="M38.46,140.34L41.38,139.62"/><path d="M41.39,139.87L38.27,140.64"/><path d="M38.14,139.59L41.35,138.79"/><path d="M41.36,139.22L38.47,139.94"/><path d="M37.68,112.50L38.90,112.42L40.09,112.74L41.12,113.43L41.87,114.41L42.27,115.59L42.28,116.83L41.79,119.98L41.73,120.14L41.64,120.27L41.50,120.37L41.34,120.42"/><path d="M42.28,116.83L60.87,112.24"/><path d="M175.71,78.36L175.57,78.42"/></g><g style="stroke:#000000;stroke-width:0.705"><path d="M41.39,139.88L38.23,140.66L37.35,140.66L36.90,140.57L36.49,140.33L36.18,139.98L34.68,137.52L34.52,137.15L34.47,136.74L34.82,116.11L35.04,114.89L35.64,113.81L36.55,112.98L37.68,112.50L175.71,78.36L175.85,78.35"/><path d="M41.34,120.42L41.17,120.42L41.01,120.37L40.89,120.28L40.78,120.13L40.73,119.97L40.73,119.80L41.22,116.66L41.22,115.77L40.93,114.92L40.39,114.22L39.66,113.73L38.81,113.50L37.94,113.56"/></g></g><g id="Actor_.3"><g style="stroke:#000000;stroke-width:0.353"><path d="M44.29,129.31L44.44,129.26L44.58,129.16L44.67,129.02L44.72,128.86L44.72,128.69L44.67,128.53L42.15,123.67L44.37,123.12"/><path d="M42.34,123.12L42.18,123.24L42.11,123.44L43.45,123.11"/><path d="M42.11,123.44L42.11,123.51L43.71,123.12"/><path d="M42.15,123.67L42.11,123.51"/><path d="M61.44,117.32L42.45,122.02L42.25,121.95L42.18,121.88L42.12,121.69L42.11,114.35L51.18,112.10"/><path d="M42.45,122.02L61.21,122.15"/><path d="M42.12,121.69L61.44,116.90"/><path d="M42.11,114.35L42.23,113.63L42.55,112.99L43.04,112.49L43.69,112.16"/><path d="M43.36,111.12L44.39,110.96L182.42,76.82"/><path d="M44.67,128.53L61.44,124.38"/><path d="M44.39,110.96L45.14,110.97L67.17,105.52"/><path d="M45.14,110.97L45.34,111.15L45.54,111.19"/><path d="M50.91,111.23L50.70,111.19L50.50,111.01L45.84,110.98"/><path d="M45.25,111.09L66.93,105.73"/><path d="M50.50,111.01L67.79,106.73"/><path d="M56.27,111.27L56.06,111.23L55.86,111.05L51.21,111.02"/><path d="M50.62,111.13L68.09,106.81"/><path d="M73.05,106.80L55.86,111.05"/><path d="M199.25,76.95L61.22,111.09L56.57,111.06"/><path d="M73.38,106.87L55.98,111.17"/><path d="M61.10,122.16L61.24,122.13"/><path d="M61.22,111.09L61.42,111.28L61.63,111.31"/><path d="M64.22,128.70L62.51,129.12L62.44,129.32L62.28,129.44"/><path d="M62.31,129.42L64.21,128.95"/><path d="M66.69,117.64L66.15,117.77L66.08,117.74L66.03,117.68L66.03,114.53L65.86,113.48L65.39,112.53L64.64,111.77L63.71,111.28L62.68,111.11L61.93,111.10"/><path d="M61.34,111.21L199.37,77.07"/><path d="M62.51,129.12L62.51,113.24L64.21,112.82"/><path d="M62.51,113.24L62.56,112.95L62.71,112.69L62.93,112.50L63.21,112.39"/><path d="M62.68,111.11L200.70,76.96"/><path d="M65.47,119.48L65.58,119.42L65.66,119.33L66.54,117.97L66.66,117.94"/><path d="M65.66,119.33L66.07,119.23"/><path d="M66.54,117.97L66.56,117.90L66.51,117.79L66.43,117.77L66.15,117.77"/><path d="M66.03,117.64L66.69,117.47"/><path d="M66.69,117.71L66.43,117.77"/><path d="M66.03,114.53L204.05,80.39"/><path d="M68.52,105.19L101.21,97.10"/><path d="M100.94,97.31L69.24,105.16"/><path d="M101.83,98.31L74.12,105.17"/><path d="M102.12,98.39L74.61,105.20"/><path d="M76.38,105.98L107.08,98.38"/><path d="M76.52,106.09L107.41,98.45"/><path d="M102.56,96.76L135.24,88.68"/><path d="M103.28,96.73L134.98,88.89"/><path d="M135.83,89.90L108.16,96.75"/><path d="M108.65,96.77L136.16,89.97"/><path d="M141.17,89.95L110.43,97.55"/><path d="M110.58,97.66L141.45,90.03"/><path d="M169.29,80.26L136.59,88.35"/><path d="M169.01,80.47L137.31,88.32"/><path d="M142.04,89.97L142.08,89.94"/><path d="M170.19,81.55L142.68,88.36"/><path d="M142.19,88.33L169.87,81.48"/><path d="M175.15,81.54L144.44,89.14"/><path d="M175.48,81.61L144.58,89.25"/><path d="M170.62,79.93L183.17,76.83"/><path d="M171.34,79.90L183.28,76.94"/><path d="M176.22,79.91L188.53,76.87"/><path d="M188.64,76.99L176.71,79.94"/><path d="M194.01,77.03L178.61,80.83"/><path d="M193.89,76.91L178.48,80.72"/><path d="M181.38,76.98L181.29,77.02"/></g><g style="stroke:#000000;stroke-width:0.705"><path d="M61.44,125.07L44.29,129.31L44.12,129.31L43.96,129.26L43.82,129.16L43.72,129.03L41.20,124.17L41.08,123.85L41.04,123.50L41.04,114.34L41.21,113.29L41.68,112.35L42.42,111.60L43.36,111.12L181.38,76.98L182.42,76.82L183.17,76.83L183.31,76.97"/><path d="M42.34,123.12L61.21,123.27L61.37,123.39L61.44,123.59L61.44,129.11L61.50,129.31L61.67,129.44L62.17,129.46L64.21,128.96"/><path d="M43.69,112.16L44.39,112.05L60.58,112.18L60.84,112.22L61.08,112.35L61.27,112.54L61.39,112.78L61.44,113.05L61.44,121.82L61.37,122.02L61.21,122.15"/><path d="M45.54,111.19L45.64,111.15L45.84,110.98L66.87,105.77"/><path d="M50.91,111.23L51.01,111.20L51.21,111.02L68.44,106.75"/><path d="M56.27,111.27L56.37,111.24L56.57,111.06L73.83,106.79"/><path d="M61.63,111.31L61.73,111.28L61.93,111.10L199.96,76.95L200.70,76.96L201.74,77.13L202.67,77.62L203.41,78.38L203.89,79.33L204.05,80.39L204.05,82.39"/><path d="M63.21,112.39L63.51,112.39L63.78,112.49L64.27,112.86L64.64,113.35L64.87,113.91L64.95,114.52L64.95,119.11L64.97,119.23L65.03,119.34L65.12,119.43L65.23,119.48L65.35,119.50L66.01,119.35"/><path d="M68.12,106.83L68.05,106.75"/><path d="M69.39,105.15L100.88,97.36"/><path d="M73.41,106.89L73.29,106.79"/><path d="M74.71,105.20L102.43,98.34"/><path d="M76.55,106.11L107.88,98.37"/><path d="M102.15,98.41L102.08,98.33"/><path d="M134.92,88.94L103.43,96.73"/><path d="M107.33,98.38L107.45,98.47"/><path d="M136.50,89.92L108.76,96.78"/><path d="M110.61,97.69L141.91,89.95"/><path d="M136.12,89.91L136.19,89.99"/><path d="M168.95,80.52L137.46,88.31"/><path d="M141.36,89.96L141.48,90.05"/><path d="M142.78,88.36L170.53,81.50"/><path d="M144.61,89.28L175.93,81.53"/><path d="M170.15,81.49L170.22,81.58"/><path d="M171.49,79.89L183.87,76.83L188.53,76.87L188.68,77.01"/><path d="M175.40,81.54L175.52,81.63"/><path d="M194.04,77.05L193.89,76.91L189.23,76.87L176.81,79.94"/><path d="M199.40,77.09L199.25,76.95L194.60,76.91L178.64,80.86"/></g></g><g id="Actor_.4"><g style="stroke:#000000;stroke-width:0.353"><path d="M62.97,114.19L63.18,114.15L63.63,114.15L64.01,114.23L64.37,114.42L64.66,114.71L64.85,115.08L64.91,115.49L64.91,120.33L64.97,120.51L65.04,120.58L65.24,120.65L203.26,86.51"/><path d="M63.18,114.15L64.81,113.75"/><path d="M63.63,114.15L64.85,113.85"/><path d="M65.24,120.65L79.90,121.15L83.70,121.53"/><path d="M67.44,126.60L68.09,126.58"/><path d="M68.13,126.56L67.99,126.60"/><path d="M70.51,128.14L69.08,128.50L68.91,128.62"/><path d="M69.08,128.50L70.25,126.78L70.23,126.67L70.16,126.62L69.62,126.61L70.51,126.39"/><path d="M69.62,126.61L69.42,126.54L69.35,126.47L69.29,126.27L69.29,122.12L69.35,121.92L69.52,121.80"/><path d="M69.29,126.27L70.51,125.96"/><path d="M70.53,121.81L69.29,122.12"/><path d="M70.51,126.52L70.12,126.61"/><path d="M70.23,126.82L70.51,126.75"/><path d="M79.90,121.15L217.93,87.01"/><path d="M84.05,121.25L84.16,121.26L84.45,121.60L89.04,122.05"/><path d="M84.45,121.60L222.48,87.46"/><path d="M84.19,121.29L222.22,87.14"/><path d="M94.38,122.58L89.79,122.13L89.50,121.79L89.39,121.78"/><path d="M89.53,121.81L227.56,87.67"/><path d="M89.79,122.13L227.82,87.98"/><path d="M99.72,123.11L95.13,122.65L94.87,122.34L94.81,122.30L94.73,122.30"/><path d="M94.87,122.34L232.90,88.19"/><path d="M95.13,122.65L233.16,88.51"/><path d="M100.08,122.82L100.18,122.84L100.47,123.18L238.50,89.03"/><path d="M100.21,122.87L238.24,88.72"/><path d="M100.47,123.18L105.06,123.63"/><path d="M105.41,123.35L105.49,123.35L105.55,123.39L105.81,123.71L243.84,89.56"/><path d="M105.55,123.39L243.58,89.25"/><path d="M110.40,124.16L105.81,123.71"/><path d="M249.18,90.09L111.15,124.23L110.86,123.89L110.75,123.88"/><path d="M111.15,124.23L115.74,124.68"/><path d="M110.89,123.92L248.92,89.77"/><path d="M116.09,124.40L116.20,124.42L116.49,124.76L121.09,125.21"/><path d="M254.52,90.61L116.49,124.76"/><path d="M116.23,124.44L254.26,90.30"/><path d="M119.39,125.81L119.26,125.91L119.45,125.88L119.22,125.94"/><path d="M119.26,125.91L119.11,125.99"/><path d="M119.62,140.50L125.19,140.51"/><path d="M119.73,140.48L120.58,140.27"/><path d="M259.60,90.82L121.57,124.97L121.51,124.93L121.43,124.93"/><path d="M121.57,124.97L121.83,125.28L126.43,125.74"/><path d="M121.83,125.28L259.86,91.14"/><path d="M125.09,140.52L125.23,140.49"/><path d="M125.65,137.14L126.16,137.15L126.32,137.27L126.37,137.37L126.39,140.19L126.45,140.39L126.62,140.52L126.72,140.53L127.88,140.54L128.02,140.51"/><path d="M125.76,137.13L131.21,135.78"/><path d="M126.39,140.19L128.24,139.73"/><path d="M126.72,140.53L128.21,140.17"/><path d="M126.05,137.13L131.21,135.85"/><path d="M126.39,137.47L131.21,136.28"/><path d="M264.94,91.35L126.91,125.49L126.85,125.45L126.77,125.46"/><path d="M126.91,125.49L127.17,125.81L130.88,126.18L131.39,126.39L131.81,126.75L132.08,127.23L132.18,127.78L132.09,128.32L131.83,128.81L131.42,129.17L130.92,129.38"/><path d="M127.88,140.54L127.98,140.53"/><path d="M131.44,140.30L131.74,140.15L131.97,139.91L132.13,139.61L132.18,139.27L132.18,132.80L132.10,132.27L131.86,131.78L131.49,131.40L131.02,131.14L129.65,130.90L128.66,130.40L127.90,129.58L127.45,128.55L127.35,127.68L127.41,127.40L127.52,127.20L127.69,127.04L127.91,126.93"/><path d="M127.35,127.68L128.85,127.31"/><path d="M127.17,125.81L265.20,91.66"/><path d="M130.86,139.80L129.18,140.21L129.11,140.62L128.93,140.99L128.64,141.28L128.28,141.46"/><path d="M129.11,138.66L129.51,138.60L130.88,138.61L131.02,138.57"/><path d="M129.18,140.21L129.18,139.91L130.51,139.58"/><path d="M129.18,139.91L129.24,139.71L129.41,139.59"/><path d="M129.51,138.60L131.21,138.18"/><path d="M130.88,138.61L130.98,138.59"/><path d="M130.50,131.04L268.53,96.90"/><path d="M130.71,126.16L268.74,92.01"/><path d="M132.18,139.27L270.21,105.13"/><path d="M132.18,132.80L270.21,98.65"/><path d="M222.07,87.10L222.03,87.13"/><path d="M227.38,87.65L227.41,87.63"/><path d="M232.71,88.18L232.75,88.16"/><path d="M238.06,88.71L238.09,88.68"/><path d="M243.43,89.21L243.40,89.23"/><path d="M248.77,89.73L248.74,89.76"/><path d="M254.12,90.26L254.08,90.28"/><path d="M259.46,90.79L259.42,90.81"/><path d="M264.80,91.31L264.76,91.34"/></g><g style="stroke:#000000;stroke-width:0.705"><path d="M68.09,126.58L68.26,126.46L68.32,126.26L68.30,121.96L68.19,121.80L67.99,121.73L65.21,121.63L64.82,121.55L64.47,121.36L64.19,121.07L64.01,120.70L63.95,120.30L63.93,115.37L63.81,115.20L63.71,115.15L62.72,115.13L62.60,115.09L62.52,114.98L62.54,114.62L62.64,114.43L62.79,114.28L62.97,114.19L64.80,113.73"/><path d="M70.51,128.23L68.91,128.62L68.70,128.62L68.53,128.49L67.38,126.80L67.36,126.68L67.44,126.60"/><path d="M119.45,125.90L119.02,125.99L79.85,122.13L69.52,121.80"/><path d="M83.70,121.53L84.05,121.25L222.07,87.10L222.19,87.12L222.48,87.46L226.51,87.85"/><path d="M89.04,122.05L89.39,121.78L227.45,87.62L227.56,87.67L227.82,87.98L231.85,88.38"/><path d="M237.19,88.91L233.16,88.51L232.90,88.19L232.83,88.15L232.75,88.16L94.73,122.30L94.38,122.58"/><path d="M242.53,89.43L238.50,89.03L238.21,88.69L238.09,88.68L100.07,122.83L99.72,123.11"/><path d="M105.06,123.63L105.41,123.35L243.43,89.21L243.51,89.20L243.58,89.25L243.84,89.56L247.87,89.96"/><path d="M253.21,90.48L249.18,90.09L248.89,89.74L248.77,89.73L110.75,123.88L110.40,124.16"/><path d="M115.74,124.68L116.09,124.40L254.12,90.26L254.23,90.27L254.52,90.61L258.55,91.01"/><path d="M120.52,140.27L119.62,140.50L119.45,140.64L119.39,140.82L119.39,141.12L119.41,141.22L119.53,141.39L119.73,141.46L127.88,141.52L128.28,141.46L266.30,107.32L266.67,107.13L266.95,106.84L266.99,106.77"/><path d="M119.39,125.81L119.57,126.00L119.72,126.06L126.14,126.69L126.33,126.78L126.44,126.97L126.46,128.53L126.95,129.88L127.86,130.99L129.08,131.74L130.71,132.07L130.91,132.18L131.07,132.35L131.18,132.56L131.21,132.79L131.21,138.27L131.15,138.47L130.98,138.59"/><path d="M121.09,125.21L121.43,124.93L259.46,90.79L259.54,90.78L259.60,90.82L259.86,91.14L263.88,91.54L126.77,125.46L126.43,125.74"/><path d="M125.19,140.51L125.36,140.38L125.42,140.18L125.42,137.46L125.49,137.27L125.56,137.19L125.65,137.14L131.21,135.77"/><path d="M127.98,140.53L128.15,140.40L128.19,140.31L128.21,139.91L128.27,139.50L128.46,139.13L128.75,138.84L129.11,138.66L131.21,138.14"/><path d="M127.91,126.93L128.18,126.89L128.41,126.94L128.63,127.05L128.81,127.24L128.93,127.49L128.97,127.91L129.10,128.45L129.41,128.91L129.85,129.24L130.37,129.40L130.92,129.38L268.95,95.23L269.45,95.03L269.86,94.66L270.12,94.18L270.21,93.63L270.11,93.09L269.84,92.62L269.42,92.24L268.91,92.04L268.74,92.01L265.20,91.66L264.88,91.31L263.88,91.54"/><path d="M129.41,139.59L130.66,139.60L130.75,139.65L130.87,139.82L130.90,140.26L130.94,140.32L131.11,140.35L131.44,140.30L269.46,106.15L269.76,106.00L270.00,105.76L270.15,105.46L270.21,105.13L270.21,98.65L270.12,98.12L269.89,97.64L269.52,97.25L269.05,97.00L267.68,96.76L266.69,96.25L266.34,95.88"/><path d="M221.17,87.33L217.93,87.01L203.26,86.51L203.08,86.44"/></g></g><g id="Actor_.5"><g style="stroke:#000000;stroke-width:0.353"><path d="M64.14,119.25L64.05,119.24L62.23,118.16L62.06,118.15"/><path d="M64.20,119.15L64.26,119.49L64.41,119.80L64.65,120.05L64.95,120.21L65.29,120.26L65.73,120.27L66.03,120.22"/><path d="M205.46,84.18L67.44,118.32L66.74,119.84L66.45,120.14L66.08,120.33"/><path d="M66.36,116.59L66.27,116.64L66.20,116.71L66.15,116.81L66.13,116.99L66.15,117.10L66.20,117.19L66.27,117.27L66.36,117.32L66.47,117.34"/><path d="M66.36,116.43L66.69,116.42L66.96,116.50L67.20,116.66L67.39,116.87L67.51,117.13L67.55,117.42L205.58,83.27"/><path d="M66.72,116.43L204.72,82.28"/><path d="M204.49,82.28L66.46,116.42"/><path d="M66.74,119.84L204.76,85.70"/><path d="M67.44,118.32L67.52,118.07L67.55,117.81L67.55,117.42"/><path d="M67.55,117.81L205.58,83.67"/><path d="M204.11,86.18L204.07,86.19"/><path d="M204.38,82.29L204.27,82.33"/></g><g style="stroke:#000000;stroke-width:0.705"><path d="M62.06,118.15L61.92,118.25L61.87,118.33L61.87,118.50L61.97,118.65L64.60,120.20L64.90,120.33L65.22,120.37L65.67,120.37L66.08,120.33L204.11,86.18L204.48,86.00L204.76,85.70L205.46,84.18L205.55,83.93L205.58,83.67L205.58,83.27L205.54,82.99L205.42,82.73L205.23,82.51L204.99,82.36L204.72,82.28L204.38,82.29L66.36,116.43L66.18,116.50L66.04,116.62L65.94,116.79L65.91,116.97L65.94,117.16L66.02,117.33L66.47,117.34"/><path d="M64.14,119.25L64.19,119.21L64.20,119.15"/><path d="M66.36,116.59L66.58,116.57L66.85,116.62L67.09,116.74L67.28,116.94L67.40,117.18L67.44,117.45L67.44,117.81L67.42,118.05L67.34,118.28L66.71,119.64L66.54,119.90L66.31,120.10L66.03,120.22"/></g></g><g id="Actor_.6"><g style="stroke:#000000;stroke-width:0.353"><path d="M144.74,89.39L144.30,89.46L143.35,89.52L141.99,89.56L140.36,89.59L138.65,89.59L137.04,89.56L136.37,89.54L135.70,89.52L134.78,89.45L134.38,89.38"/><path d="M143.77,88.58L143.64,88.64L143.07,88.69L142.11,88.74L141.53,88.75L140.89,88.77L139.52,88.78L138.15,88.76L136.94,88.74L136.01,88.69L135.59,88.65L135.47,88.63L135.37,88.57"/><path d="M135.79,88.43L135.88,88.49L136.36,88.54L137.20,88.58L138.29,88.60L139.52,88.61L140.76,88.60L141.33,88.59L141.86,88.58L142.04,88.57L142.72,88.54L143.23,88.49L143.35,88.44L143.06,88.38"/></g><g style="stroke:#000000;stroke-width:0.705"><path d="M134.36,89.70L134.32,89.64L134.30,89.57L134.30,89.50L134.33,89.43L134.38,89.38L135.37,88.57L135.57,88.47L136.11,88.38L136.80,88.33L137.80,88.30L138.98,88.28L140.23,88.28L141.41,88.30L142.39,88.34L143.06,88.38L143.26,88.42L143.57,88.47L143.77,88.58L144.74,89.39L144.79,89.44L144.82,89.51L144.82,89.58L144.80,89.65L144.76,89.71L144.70,89.75L144.63,89.77L144.21,89.84L143.27,89.90L143.12,89.91L141.94,89.95L140.35,89.97L138.67,89.97L137.74,89.96L137.09,89.94L135.78,89.90L134.88,89.84L134.49,89.77L134.42,89.75L134.36,89.70"/><path d="M136.11,88.38L135.59,88.46L136.11,88.38"/></g></g><g id="Actor_.7"><g style="stroke:#000000;stroke-width:0.353"><path d="M168.40,80.95L168.75,81.03L169.62,81.09L170.92,81.14L172.51,81.17L174.22,81.17L175.87,81.15L177.26,81.11L178.26,81.05L178.75,80.97L178.69,80.90"/><path d="M177.81,80.17L177.63,80.23L177.02,80.28L176.48,80.30L176.03,80.32L174.79,80.35L173.41,80.36L172.05,80.34L170.87,80.31L169.97,80.27L169.47,80.21L169.39,80.18L169.42,80.15"/><path d="M169.83,80.01L169.81,80.03L169.88,80.06L170.33,80.11L171.14,80.15L172.21,80.18L173.43,80.19L174.67,80.19L175.79,80.16L176.68,80.12L177.23,80.08L177.39,80.02L177.14,79.97"/></g><g style="stroke:#000000;stroke-width:0.705"><path d="M169.32,80.23L169.42,80.15L169.62,80.04L169.83,80.01L170.19,79.95L170.92,79.91L171.94,79.88L173.14,79.86L174.39,79.87L175.55,79.89L176.10,79.91L176.50,79.92L177.14,79.97L177.35,80.00L177.61,80.06L177.81,80.17L178.69,80.90L178.80,81.03L178.83,81.09L178.84,81.17L178.82,81.24L178.78,81.30L178.72,81.34L178.65,81.36L178.17,81.43L177.19,81.49L177.00,81.49L175.82,81.53L174.21,81.55L172.54,81.55L170.98,81.52L169.70,81.47L168.85,81.41L168.51,81.34L168.44,81.32L168.38,81.28L168.34,81.22L168.32,81.15L168.33,81.07L168.36,81.01L168.41,80.95L169.39,80.18"/></g></g><g id="Actor_.8"><g style="stroke:#000000;stroke-width:0.353"><path d="M100.38,97.75L100.43,97.83L101.03,97.90L101.15,97.90L102.11,97.95L103.57,97.99L105.24,98.01L106.94,98.00L108.49,97.97L109.38,97.93L109.72,97.92L110.49,97.85L110.73,97.78"/><path d="M109.67,96.98L109.70,97.04L109.29,97.09L108.46,97.14L107.32,97.18L105.99,97.19L104.61,97.19L103.30,97.17L102.28,97.13L101.58,97.07L101.32,97.02"/><path d="M101.91,96.82L101.74,96.87L101.97,96.92L102.60,96.97L103.54,97.01L104.70,97.03L105.94,97.03L107.15,97.02L108.17,96.99L108.92,96.94L109.29,96.89L109.26,96.84"/></g><g style="stroke:#000000;stroke-width:0.705"><path d="M110.69,98.14L110.75,98.10L110.79,98.04L110.81,97.97L110.80,97.90L110.78,97.83L110.73,97.78L109.67,96.98L109.47,96.87L109.26,96.84L108.82,96.78L108.46,96.76L108.03,96.74L106.96,96.71L105.74,96.70L104.50,96.71L103.37,96.73L102.47,96.77L101.91,96.82L101.70,96.85L101.52,96.91L101.32,97.02L100.38,97.75L100.33,97.81L100.31,97.87L100.30,97.94L100.32,98.01L100.37,98.09L100.41,98.15L100.46,98.19L100.53,98.21L101.12,98.28L102.18,98.34L103.61,98.38L105.25,98.39L106.91,98.38L108.43,98.35L108.68,98.34L109.63,98.30L110.39,98.24"/><path d="M110.69,98.14L110.39,98.24"/></g></g><g id="Actor_.9"><g style="stroke:#000000;stroke-width:0.353"><path d="M64.43,114.66L64.54,114.64L64.95,114.65L65.06,114.67L65.16,114.72L65.23,114.79L65.28,114.89L65.30,115.00L65.28,115.11L65.23,115.20L65.21,115.23L65.16,115.28L65.06,115.33"/><path d="M65.31,119.50L65.29,119.50L65.19,119.48L65.09,119.44L65.02,119.36L64.97,119.26L64.95,119.16L64.95,115.35"/><path d="M65.29,119.50L65.73,119.51L65.82,119.49"/><path d="M65.55,119.44L66.03,119.32"/><path d="M64.95,119.16L64.96,119.16"/><path d="M64.95,114.54L64.59,114.63"/><path d="M66.36,116.59L66.47,116.57L66.58,116.57L66.85,116.62L67.09,116.74L67.28,116.94L67.40,117.18L67.44,117.45L67.44,117.81L67.42,118.05L67.34,118.28L66.71,119.64L66.54,119.90L66.31,120.10L66.03,120.22"/><path d="M66.72,119.64L66.71,119.64"/><path d="M65.73,119.51L65.87,119.47"/></g><g style="stroke:#000000;stroke-width:0.705"><path d="M66.03,120.22L65.73,120.27L65.29,120.26L64.95,120.21L64.65,120.05L64.41,119.80L64.26,119.49L64.20,119.15L64.20,114.98L64.22,114.88L64.27,114.78L64.34,114.71L64.43,114.66"/><path d="M65.06,115.33L64.95,115.35"/><path d="M65.82,119.49L65.91,119.45L65.98,119.39L66.03,119.31L66.66,117.95L66.68,117.88L66.69,117.81L66.69,117.45L66.69,117.41L66.67,117.38L66.65,117.36L66.62,117.34L66.58,117.34L66.47,117.34L66.36,117.32L66.27,117.27L66.20,117.19L66.15,117.10L66.13,116.99L66.13,116.91L66.15,116.81L66.20,116.71L66.27,116.64L66.36,116.59"/></g></g><g/><g id="paperID" visibility="hidden" opacity="0.00" transform="scale(0.000100)"><path style="stroke:#000000;stroke-width:0.500;fill:#e6e6e6;fill-rule:evenodd" d="M-2000.00,-2000.00L2297.00,-2000.00L2297.00,2210.00L-2000.00,2210.00zM0.00,0.00L297.00,0.00L297.00,210.00L0.00,210.00z"/><path style="fill:#000000;fill-opacity:0.118" d="M3.00,210.00L297.00,210.00L297.00,3.00L300.00,3.00L300.00,213.00L3.00,213.00z"/></g><g id="ToolTip" visibility="hidden" opacity="0" transform="translate(0,0)"><rect id="ToolTipShadow" opacity="0.20" fill="black" stroke="none" x="0" y="0" width="30" height="8"/><rect id="ToolTipBG" fill="#ffffe1" stroke="black" x="0" y="0" width="30" height="8"/><text xml:space="preserve" id="ToolTipText" fill="black" x="0" y="0" width="30" height="8">tooltip</text></g></g></svg>
